<svg width="32" height="32" viewBox="0 0 32 32" fill="none" xmlns="http://www.w3.org/2000/svg">
<path d="M4.39467 27.4693L12.88 18.984M23.5653 15.2107L21.0253 22.8307C20.9848 22.9528 20.9154 23.0634 20.823 23.153C20.7306 23.2426 20.618 23.3086 20.4947 23.3453L4.924 27.9733C4.78372 28.015 4.6347 28.0174 4.49316 27.9802C4.35162 27.9431 4.22298 27.8678 4.12124 27.7627C4.0195 27.6575 3.94855 27.5264 3.91613 27.3837C3.8837 27.241 3.89104 27.0922 3.93734 26.9533L8.99334 11.788C9.02957 11.6791 9.08881 11.5793 9.16703 11.4953C9.24525 11.4114 9.34062 11.3452 9.44667 11.3013L16.6293 8.34401C16.7754 8.2837 16.936 8.26797 17.0909 8.29882C17.2459 8.32967 17.3882 8.4057 17.5 8.51734L23.372 14.3907C23.4773 14.4958 23.5512 14.6283 23.5854 14.7732C23.6195 14.918 23.6126 15.0695 23.5653 15.2107V15.2107Z" stroke="#FFB6B6" stroke-width="2" stroke-linecap="round" stroke-linejoin="round"/>
<path d="M23.7227 14.7413L27.4933 10.9693C27.9933 10.4693 28.2741 9.79111 28.2741 9.084C28.2741 8.3769 27.9933 7.69874 27.4933 7.19867L24.6667 4.36934C24.419 4.1216 24.125 3.92508 23.8014 3.791C23.4778 3.65692 23.1309 3.58791 22.7807 3.58791C22.4304 3.58791 22.0835 3.65692 21.7599 3.791C21.4363 3.92508 21.1423 4.1216 20.8947 4.36934L17.124 8.14134M15.708 16.1547C15.5222 15.969 15.3017 15.8217 15.059 15.7212C14.8163 15.6208 14.5562 15.5691 14.2935 15.5692C14.0309 15.5692 13.7708 15.621 13.5281 15.7216C13.2855 15.8222 13.065 15.9696 12.8793 16.1553C12.6936 16.3411 12.5464 16.5616 12.4459 16.8043C12.3454 17.047 12.2938 17.3071 12.2938 17.5698C12.2939 17.8325 12.3457 18.0926 12.4463 18.3352C12.5468 18.5779 12.6942 18.7983 12.88 18.984C13.2552 19.359 13.764 19.5696 14.2945 19.5695C14.8249 19.5694 15.3336 19.3585 15.7087 18.9833C16.0837 18.6081 16.2943 18.0993 16.2942 17.5689C16.294 17.0384 16.0832 16.5297 15.708 16.1547Z" stroke="#FFB6B6" stroke-width="2" stroke-linecap="round" stroke-linejoin="round"/>
</svg>
