<svg width="33" height="25" viewBox="0 0 33 25" fill="none" xmlns="http://www.w3.org/2000/svg">
<g clip-path="url(#clip0_12_73)">
<path d="M7.71595 24.0038V11.6413L3.84279 8.13379L0.369629 6.18736V21.8221C0.369629 23.0292 1.35765 24.0038 2.57358 24.0038H7.71595Z" fill="#4285F4"/>
<path d="M25.347 24.0038H30.4894C31.709 24.0038 32.6934 23.0256 32.6934 21.8221V6.18748L28.7595 8.41688L25.347 11.6413V24.0038Z" fill="#34A853"/>
<path d="M7.71587 11.6413L7.18884 6.81092L7.71587 2.18777L16.5314 8.7326L25.347 2.18777L25.9365 6.56132L25.347 11.6413L16.5314 18.1861L7.71587 11.6413Z" fill="#EA4335"/>
<path d="M25.347 2.18778V11.6413L32.6934 6.18737V3.27854C32.6934 0.580697 29.5822 -0.957269 27.4041 0.660689L25.347 2.18778Z" fill="#FBBC04"/>
<path d="M0.369629 6.18736L3.74834 8.69585L7.71595 11.6413V2.18778L5.65885 0.660685C3.477 -0.957397 0.369629 0.580693 0.369629 3.27841V6.18724V6.18736Z" fill="#C5221F"/>
</g>
<defs>
<clipPath id="clip0_12_73">
<rect width="32.3271" height="24.1225" fill="white" transform="translate(0.36792)"/>
</clipPath>
</defs>
</svg>
