<svg width="32" height="32" viewBox="0 0 32 32" fill="none" xmlns="http://www.w3.org/2000/svg">
<g clip-path="url(#clip0_9_43)">
<path d="M16 0.5C7.16129 0.5 0 7.4375 0 16C0 24.5625 7.16129 31.5 16 31.5C24.8387 31.5 32 24.5625 32 16C32 7.4375 24.8387 0.5 16 0.5ZM16 6.5C19.1355 6.5 21.6774 8.9625 21.6774 12C21.6774 15.0375 19.1355 17.5 16 17.5C12.8645 17.5 10.3226 15.0375 10.3226 12C10.3226 8.9625 12.8645 6.5 16 6.5ZM16 28C12.2129 28 8.81936 26.3375 6.54839 23.7375C7.76129 21.525 10.1355 20 12.9032 20C13.0581 20 13.2129 20.025 13.3613 20.0688C14.2 20.3313 15.0774 20.5 16 20.5C16.9226 20.5 17.8064 20.3313 18.6387 20.0688C18.7871 20.025 18.9419 20 19.0968 20C21.8645 20 24.2387 21.525 25.4516 23.7375C23.1806 26.3375 19.7871 28 16 28Z" fill="white"/>
</g>
<defs>
<clipPath id="clip0_9_43">
<rect width="32" height="32" fill="white"/>
</clipPath>
</defs>
</svg>
