<svg width="32" height="32" viewBox="0 0 32 32" fill="none" xmlns="http://www.w3.org/2000/svg">
<g clip-path="url(#clip0_9_49)">
<path d="M22 10H24V12.292C23.9997 12.6916 23.8798 13.082 23.6555 13.4129C23.4313 13.7437 23.1131 13.9997 22.742 14.148L22 14.446V10ZM10 14.446L9.258 14.148C8.88688 13.9997 8.56868 13.7437 8.34446 13.4129C8.12023 13.082 8.00025 12.6916 8 12.292V10H10V14.446Z" fill="white"/>
<path fill-rule="evenodd" clip-rule="evenodd" d="M16 32C20.2435 32 24.3131 30.3143 27.3137 27.3137C30.3143 24.3131 32 20.2435 32 16C32 11.7565 30.3143 7.68687 27.3137 4.68629C24.3131 1.68571 20.2435 0 16 0C11.7565 0 7.68687 1.68571 4.68629 4.68629C1.68571 7.68687 0 11.7565 0 16C0 20.2435 1.68571 24.3131 4.68629 27.3137C7.68687 30.3143 11.7565 32 16 32ZM6 10C6 9.46957 6.21071 8.96086 6.58579 8.58579C6.96086 8.21071 7.46957 8 8 8H24C24.5304 8 25.0391 8.21071 25.4142 8.58579C25.7893 8.96086 26 9.46957 26 10V12.292C26.0001 13.0914 25.7606 13.8725 25.3125 14.5345C24.8644 15.1965 24.2282 15.709 23.486 16.006L21.756 16.698C21.4452 17.7477 20.8536 18.6927 20.045 19.4307C19.2365 20.1688 18.2417 20.672 17.168 20.886C17.56 22.81 18.684 24 21 24C21.2652 24 21.5196 24.1054 21.7071 24.2929C21.8946 24.4804 22 24.7348 22 25C22 25.2652 21.8946 25.5196 21.7071 25.7071C21.5196 25.8946 21.2652 26 21 26H11C10.7348 26 10.4804 25.8946 10.2929 25.7071C10.1054 25.5196 10 25.2652 10 25C10 24.7348 10.1054 24.4804 10.2929 24.2929C10.4804 24.1054 10.7348 24 11 24H11.004C13.316 24 14.44 22.808 14.832 20.886C13.7586 20.6722 12.7639 20.1693 11.9554 19.4316C11.1468 18.6939 10.5551 17.7494 10.244 16.7L8.514 16.008C7.77149 15.7109 7.13509 15.198 6.68696 14.5356C6.23883 13.8733 5.99955 13.0917 6 12.292V10Z" fill="white"/>
</g>
<defs>
<clipPath id="clip0_9_49">
<rect width="32" height="32" fill="white"/>
</clipPath>
</defs>
</svg>
