<svg width="32" height="32" viewBox="0 0 32 32" fill="none" xmlns="http://www.w3.org/2000/svg">
<path d="M25.3333 5.33333H19.76C19.487 4.55392 18.9785 3.87861 18.3049 3.40083C17.6313 2.92304 16.8258 2.6664 16 2.6664C15.1742 2.6664 14.3687 2.92304 13.6951 3.40083C13.0215 3.87861 12.513 4.55392 12.24 5.33333H6.66667C5.96007 5.33544 5.28302 5.61707 4.78338 6.11671C4.28374 6.61635 4.00211 7.29341 4 8V26.6667C4.00211 27.3733 4.28374 28.0503 4.78338 28.55C5.28302 29.0496 5.96007 29.3312 6.66667 29.3333H25.3333C26.0399 29.3312 26.717 29.0496 27.2166 28.55C27.7163 28.0503 27.9979 27.3733 28 26.6667V8C27.9979 7.29341 27.7163 6.61635 27.2166 6.11671C26.717 5.61707 26.0399 5.33544 25.3333 5.33333ZM16 5.33333C16.2637 5.33333 16.5215 5.41153 16.7408 5.55804C16.96 5.70455 17.1309 5.91279 17.2318 6.15642C17.3328 6.40006 17.3592 6.66815 17.3077 6.92679C17.2563 7.18543 17.1293 7.42301 16.9428 7.60948C16.7563 7.79595 16.5188 7.92293 16.2601 7.97438C16.0015 8.02583 15.7334 7.99942 15.4898 7.89851C15.2461 7.79759 15.0379 7.62669 14.8914 7.40743C14.7449 7.18816 14.6667 6.93038 14.6667 6.66667C14.6677 6.31337 14.8085 5.97484 15.0584 5.72502C15.3082 5.4752 15.6467 5.33439 16 5.33333ZM13.3333 12L17.0533 15.7253L20.4133 12.3653L18.6667 10.6667H24V16L22.2987 14.252L17.056 19.4987L13.3333 15.7733L9.88533 19.2187L8 17.3333L13.3333 12ZM25.3333 25.3333H6.66667V22.6667H25.3333V25.3333Z" fill="white"/>
</svg>
