<svg width="61" height="32" viewBox="0 0 61 32" fill="none" xmlns="http://www.w3.org/2000/svg">
<g clip-path="url(#clip0_12_98)">
<path d="M30.345 31.9052C47.1017 31.9052 60.6858 24.763 60.6858 15.9526C60.6858 7.14222 47.1017 0 30.345 0C13.5883 0 0.00427246 7.14222 0.00427246 15.9526C0.00427246 24.763 13.5883 31.9052 30.345 31.9052Z" fill="url(#paint0_radial_12_98)"/>
<path d="M30.345 30.72C46.4472 30.72 59.5006 24.1084 59.5006 15.9526C59.5006 7.79677 46.4472 1.18518 30.345 1.18518C14.2428 1.18518 1.18945 7.79677 1.18945 15.9526C1.18945 24.1084 14.2428 30.72 30.345 30.72Z" fill="#6181B6"/>
<path d="M36.2473 20.7407L37.6932 13.2978C38.025 11.6148 37.7406 10.3585 36.8873 9.57629C36.0576 8.81777 34.6354 8.43851 32.5495 8.43851H30.0369L30.748 4.74073C30.7717 4.59851 30.748 4.45629 30.6532 4.33777C30.5584 4.21925 30.4398 4.17184 30.2976 4.17184H26.8369C26.5998 4.17184 26.4102 4.33777 26.3628 4.5511L24.8221 12.4444C24.6798 11.5437 24.348 10.7852 23.7791 10.1689C22.7598 9.0074 21.1717 8.41481 19.0147 8.41481H12.3539C12.1169 8.41481 11.9273 8.58073 11.8798 8.79407L8.77466 24.8178C8.75096 24.96 8.77466 25.1022 8.86948 25.2207C8.96429 25.3393 9.08281 25.3867 9.22503 25.3867H12.7095C12.9465 25.3867 13.1361 25.2207 13.1836 25.0074L13.9421 21.1437H16.5258C17.8769 21.1437 19.0384 21.0015 19.9154 20.717C20.8398 20.4089 21.6695 19.9111 22.4043 19.2237C22.9969 18.6785 23.4947 18.0622 23.8739 17.3985L23.2576 20.5985C23.2339 20.7407 23.2576 20.883 23.3524 21.0015C23.4473 21.12 23.5658 21.1674 23.708 21.1674H27.1687C27.4058 21.1674 27.5954 21.0015 27.6428 20.7881L29.3495 12.0178H31.7198C32.7391 12.0178 33.0236 12.2074 33.1184 12.3022C33.1895 12.3733 33.3317 12.6578 33.1658 13.5348L31.791 20.6222C31.7673 20.7644 31.791 20.9067 31.8858 21.0252C31.9806 21.1437 32.0991 21.1911 32.2413 21.1911H35.7969C36.0102 21.12 36.1998 20.9541 36.2473 20.7407ZM20.2236 14.5778C20.0102 15.6918 19.6073 16.4978 19.0147 16.9481C18.4221 17.3985 17.4502 17.6355 16.1702 17.6355H14.6295L15.7436 11.8993H17.7347C19.2043 11.8993 19.7969 12.2074 20.0339 12.4681C20.3421 12.8474 20.4132 13.5822 20.2236 14.5778ZM51.0384 10.1689C50.0191 9.0074 48.431 8.41481 46.2739 8.41481H39.5658C39.3287 8.41481 39.1391 8.58073 39.0917 8.79407L35.9865 24.7941C35.9628 24.9363 35.9865 25.0785 36.0813 25.197C36.1761 25.3155 36.2947 25.363 36.4369 25.363H39.9213C40.1584 25.363 40.348 25.197 40.3954 24.9837L41.1539 21.12H43.7376C45.0887 21.12 46.2502 20.9778 47.1273 20.6933C48.0517 20.3852 48.8813 19.8874 49.6161 19.2C50.2324 18.6311 50.7539 17.9911 51.1332 17.3037C51.5124 16.6163 51.7969 15.8578 51.9628 15.0281C52.3658 12.9659 52.0576 11.3541 51.0384 10.1689ZM47.4117 14.5778C47.1984 15.6918 46.7954 16.4978 46.2028 16.9481C45.6102 17.3985 44.6384 17.6355 43.3584 17.6355H41.8176L42.9317 11.8993H44.9228C46.3924 11.8993 46.985 12.2074 47.2221 12.4681C47.5539 12.8474 47.625 13.5822 47.4117 14.5778Z" fill="white"/>
<path d="M17.7346 11.4252C19.062 11.4252 19.939 11.6622 20.3894 12.16C20.8398 12.6578 20.9346 13.4874 20.6975 14.6726C20.4605 15.9052 19.9864 16.8059 19.299 17.3274C18.6116 17.8489 17.5687 18.1096 16.1701 18.1096H14.0605L15.3642 11.4252H17.7346ZM9.24866 24.8889H12.7331L13.5627 20.6459H16.5494C17.8768 20.6459 18.9435 20.5037 19.7968 20.2193C20.6501 19.9348 21.4087 19.4845 22.1198 18.8208C22.7124 18.2756 23.1864 17.683 23.542 17.043C23.8975 16.403 24.1583 15.6919 24.3005 14.9096C24.6798 13.0133 24.3953 11.5437 23.4709 10.477C22.5464 9.41038 21.0768 8.8889 19.062 8.8889H12.3538L9.24866 24.8889ZM26.8605 4.64594H30.3212L29.4916 8.8889H32.5731C34.5168 8.8889 35.8442 9.22075 36.579 9.90816C37.3138 10.5956 37.5272 11.6859 37.2427 13.203L35.7968 20.6459H32.2887L33.6635 13.5585C33.8294 12.7526 33.7583 12.2074 33.4975 11.923C33.2368 11.6385 32.6442 11.4726 31.7672 11.4726H28.9938L27.2161 20.6459H23.7553L26.8605 4.64594ZM44.9227 11.4252C46.2501 11.4252 47.1272 11.6622 47.5775 12.16C48.0279 12.6578 48.1227 13.4874 47.8857 14.6726C47.6487 15.9052 47.1746 16.8059 46.4872 17.3274C45.7998 17.8489 44.7568 18.1096 43.3583 18.1096H41.2487L42.5524 11.4252H44.9227ZM36.4368 24.8889H39.9212L40.7509 20.6459H43.7375C45.065 20.6459 46.1316 20.5037 46.985 20.2193C47.8383 19.9348 48.5968 19.4845 49.3079 18.8208C49.9005 18.2756 50.3746 17.683 50.7301 17.043C51.0857 16.403 51.3464 15.6919 51.4887 14.9096C51.8679 13.0133 51.5835 11.5437 50.659 10.477C49.7346 9.41038 48.265 8.8889 46.2501 8.8889H39.542L36.4368 24.8889Z" fill="#000004"/>
</g>
<defs>
<radialGradient id="paint0_radial_12_98" cx="0" cy="0" r="1" gradientUnits="userSpaceOnUse" gradientTransform="translate(18.2209 5.61008) scale(39.8448 39.8448)">
<stop stop-color="white"/>
<stop offset="0.5" stop-color="#4C6B97"/>
<stop offset="1" stop-color="#231F20"/>
</radialGradient>
<clipPath id="clip0_12_98">
<rect width="60.69" height="32" fill="white"/>
</clipPath>
</defs>
</svg>
