<svg width="32" height="32" viewBox="0 0 32 32" fill="none" xmlns="http://www.w3.org/2000/svg">
<path d="M5.21698 26.2H4.80574L4.51348 26.4893L1.36792 29.603V4.8C1.36792 2.72185 3.09267 1 5.21698 1H26.2296C28.3539 1 30.0787 2.72185 30.0787 4.8V22.4C30.0787 24.4782 28.3539 26.2 26.2296 26.2H5.21698Z" fill="#009688" stroke="white" stroke-width="2"/>
<path d="M15.7234 16C17.0624 16 18.1479 14.9255 18.1479 13.6C18.1479 12.2745 17.0624 11.2 15.7234 11.2C14.3843 11.2 13.2988 12.2745 13.2988 13.6C13.2988 14.9255 14.3843 16 15.7234 16Z" fill="white"/>
<path d="M23.8051 16C25.1442 16 26.2297 14.9255 26.2297 13.6C26.2297 12.2745 25.1442 11.2 23.8051 11.2C22.4661 11.2 21.3806 12.2745 21.3806 13.6C21.3806 14.9255 22.4661 16 23.8051 16Z" fill="white"/>
<path d="M7.64157 16C8.9806 16 10.0661 14.9255 10.0661 13.6C10.0661 12.2745 8.9806 11.2 7.64157 11.2C6.30254 11.2 5.21704 12.2745 5.21704 13.6C5.21704 14.9255 6.30254 16 7.64157 16Z" fill="white"/>
</svg>
