<svg width="33" height="32" viewBox="0 0 33 32" fill="none" xmlns="http://www.w3.org/2000/svg">
<g clip-path="url(#clip0_12_69)">
<path d="M1.05655 15.8085C1.0558 18.4971 1.76549 21.1224 3.11496 23.4363L0.92749 31.3423L9.10098 29.2208C11.3617 30.4391 13.8946 31.0774 16.4685 31.0776H16.4753C24.9725 31.0776 31.8893 24.2332 31.893 15.8205C31.8946 11.744 30.2923 7.9107 27.3811 5.02673C24.4704 2.14301 20.5993 0.554046 16.4747 0.552185C7.97655 0.552185 1.06018 7.39622 1.05667 15.8085" fill="url(#paint0_linear_12_69)"/>
<path d="M0.505774 15.8035C0.504897 18.5889 1.24002 21.308 2.63761 23.7048L0.371704 31.8942L8.83827 29.6967C11.1711 30.9558 13.7976 31.6196 16.4702 31.6206H16.4771C25.2791 31.6206 32.4444 24.53 32.4482 15.8162C32.4497 11.5932 30.7897 7.62208 27.7745 4.63479C24.759 1.64788 20.7494 0.00173643 16.4771 0C7.67361 0 0.509407 7.08961 0.505899 15.8035H0.505774ZM5.5478 23.292L5.23167 22.7953C3.90275 20.7036 3.20133 18.2865 3.20233 15.8045C3.20521 8.56174 9.15991 2.66915 16.4821 2.66915C20.0281 2.67064 23.3605 4.03895 25.867 6.52155C28.3734 9.0044 29.7525 12.3049 29.7516 15.8152C29.7484 23.058 23.7936 28.9513 16.4771 28.9513H16.4718C14.0895 28.9501 11.7531 28.3168 9.71548 27.12L9.23058 26.8353L4.20635 28.1393L5.5478 23.2919V23.292Z" fill="url(#paint1_linear_12_69)"/>
<path d="M12.4856 9.19665C12.1867 8.53892 11.8721 8.52565 11.5878 8.51411C11.3549 8.50419 11.0888 8.50493 10.8229 8.50493C10.5568 8.50493 10.1244 8.60403 9.75889 8.99907C9.39302 9.39448 8.36206 10.35 8.36206 12.2935C8.36206 14.237 9.7921 16.1152 9.99145 16.379C10.191 16.6424 12.7522 20.7582 16.8083 22.3416C20.1794 23.6574 20.8654 23.3957 21.597 23.3297C22.3287 23.264 23.9581 22.3745 24.2905 21.452C24.6232 20.5297 24.6232 19.7392 24.5235 19.574C24.4237 19.4094 24.1576 19.3105 23.7585 19.1131C23.3593 18.9155 21.3974 17.9598 21.0316 17.828C20.6658 17.6963 20.3998 17.6305 20.1336 18.0261C19.8675 18.421 19.1033 19.3105 18.8704 19.574C18.6377 19.838 18.4048 19.8709 18.0058 19.6733C17.6065 19.4751 16.3213 19.0585 14.7965 17.7129C13.6102 16.6658 12.8093 15.3728 12.5765 14.9772C12.3437 14.5823 12.5516 14.3683 12.7517 14.1714C12.931 13.9944 13.1509 13.7101 13.3506 13.4796C13.5496 13.2489 13.616 13.0843 13.749 12.8208C13.8822 12.5572 13.8156 12.3265 13.716 12.1289C13.616 11.9313 12.8405 9.9778 12.4856 9.19678" fill="white"/>
</g>
<defs>
<linearGradient id="paint0_linear_12_69" x1="16.4102" y1="31.3423" x2="16.4102" y2="0.552185" gradientUnits="userSpaceOnUse">
<stop stop-color="#1FAF38"/>
<stop offset="1" stop-color="#60D669"/>
</linearGradient>
<linearGradient id="paint1_linear_12_69" x1="16.4099" y1="31.8942" x2="16.4099" y2="0" gradientUnits="userSpaceOnUse">
<stop stop-color="#F9F9F9"/>
<stop offset="1" stop-color="white"/>
</linearGradient>
<clipPath id="clip0_12_69">
<rect width="32.0846" height="32" fill="white" transform="translate(0.36792)"/>
</clipPath>
</defs>
</svg>
